<svg width="355" height="153" viewBox="0 0 355 153" fill="none" xmlns="http://www.w3.org/2000/svg">
    <path fill-rule="evenodd" clip-rule="evenodd"
          d="M75.52 0.50869C74.904 0.58101 73.032 0.78869 71.36 0.97045C60.0448 2.19925 48.1171 6.20725 38.0525 12.1631C24.6464 20.0962 14.032 31.4863 7.48928 44.9599C2.28288 55.6815 0.187203 64.8591 0.217923 76.7999C0.248003 88.3608 2.4448 97.7778 7.51936 108.096C11.4816 116.153 15.775 122.094 22.369 128.644C35.3142 141.502 52.3146 149.597 71.52 152.049C76.3402 152.664 88.879 152.572 93.6 151.887C111.588 149.274 126.806 142.164 139.84 130.282L141.6 128.678L127.491 114.557L113.382 100.437L110.669 103.12C103.421 110.286 93.8298 114.237 83.68 114.237C73.4218 114.237 64.2547 110.415 56.9206 103.08C48.1226 94.2805 44.2435 82.1663 46.2541 69.7685C49.0381 52.6021 63.4387 39.2965 80.8723 37.7826C92.0448 36.8124 103.01 40.8892 111.02 48.9922C112.569 50.5583 113.978 51.8399 114.153 51.8399C114.327 51.8399 120.55 45.6837 127.982 38.1599L141.495 24.4799L139.148 22.2879C127.456 11.3704 111.435 3.84117 94.4 1.25909C90.2752 0.63381 78.4547 0.16405 75.52 0.50869ZM159.119 76.2399L159.2 151.52H177.76H196.32L196.407 76.9599C196.456 35.9519 196.417 2.07605 196.321 1.67989L196.148 0.95989H177.593H159.039L159.119 76.2399ZM213.44 76.1599V151.36H232H250.56L250.611 128.88C250.638 116.516 250.621 97.7042 250.57 87.076C250.51 74.2015 250.587 67.8188 250.801 67.9509C250.978 68.06 258.519 80.9679 267.56 96.6348C276.601 112.302 284.076 125.12 284.17 125.12C284.264 125.12 291.753 112.28 300.811 96.5868L317.28 68.0536L317.361 109.547L317.442 151.04H336.161H354.88V76.1599V1.27989H336.32C326.112 1.27989 317.669 1.24405 317.558 1.19989C317.446 1.15573 309.953 13.934 300.906 29.5957C291.859 45.2575 284.354 58.1714 284.228 58.2936C284.103 58.4159 276.529 45.566 267.397 29.7378L250.795 0.95989H232.117H213.44V76.1599Z"
          fill="#0074FC"/>
</svg>
