<svg width="32" height="32" viewBox="0 0 32 32" fill="none" xmlns="http://www.w3.org/2000/svg">
    <path d="M21.8331 4.33313C23.3789 4.33774 24.8601 4.95385 25.9531 6.04689C27.0462 7.13993 27.6623 8.62109 27.6669 10.1669V21.8331C27.6623 23.3789 27.0462 24.8601 25.9531 25.9531C24.8601 27.0462 23.3789 27.6623 21.8331 27.6669H10.1669C8.62109 27.6623 7.13993 27.0462 6.04689 25.9531C4.95385 24.8601 4.33774 23.3789 4.33313 21.8331V10.1669C4.33774 8.62109 4.95385 7.13993 6.04689 6.04689C7.13993 4.95385 8.62109 4.33774 10.1669 4.33313H21.8331ZM21.8331 2H10.1669C5.675 2 2 5.675 2 10.1669V21.8331C2 26.325 5.675 30 10.1669 30H21.8331C26.325 30 30 26.325 30 21.8331V10.1669C30 5.675 26.325 2 21.8331 2Z"
          fill="white"/>
    <path d="M23.5831 10.1668C23.237 10.1668 22.8987 10.0642 22.6109 9.87187C22.3231 9.67957 22.0988 9.40626 21.9663 9.08649C21.8339 8.76672 21.7992 8.41485 21.8668 8.07539C21.9343 7.73592 22.101 7.4241 22.3457 7.17936C22.5904 6.93462 22.9023 6.76794 23.2417 6.70042C23.5812 6.6329 23.9331 6.66755 24.2528 6.80001C24.5726 6.93246 24.8459 7.15676 25.0382 7.44455C25.2305 7.73233 25.3331 8.07068 25.3331 8.41679C25.3336 8.64675 25.2887 8.87453 25.2009 9.08707C25.1132 9.29962 24.9843 9.49273 24.8217 9.65533C24.6591 9.81793 24.466 9.94682 24.2534 10.0346C24.0409 10.1224 23.8131 10.1673 23.5831 10.1668ZM16 11.333C16.923 11.333 17.8253 11.6068 18.5928 12.1196C19.3602 12.6324 19.9584 13.3612 20.3116 14.214C20.6649 15.0667 20.7573 16.0051 20.5772 16.9104C20.3971 17.8157 19.9527 18.6472 19.3 19.2999C18.6473 19.9526 17.8158 20.397 16.9105 20.5771C16.0052 20.7572 15.0668 20.6648 14.2141 20.3115C13.3613 19.9583 12.6324 19.3602 12.1196 18.5927C11.6068 17.8252 11.3331 16.9229 11.3331 15.9999C11.3345 14.7626 11.8266 13.5763 12.7015 12.7014C13.5764 11.8265 14.7627 11.3344 16 11.333ZM16 8.99992C14.6155 8.99992 13.2622 9.41046 12.111 10.1796C10.9599 10.9488 10.0627 12.0421 9.53285 13.3211C9.00303 14.6002 8.86441 16.0077 9.13451 17.3656C9.4046 18.7234 10.0713 19.9707 11.0503 20.9497C12.0292 21.9286 13.2765 22.5953 14.6344 22.8654C15.9922 23.1355 17.3997 22.9969 18.6788 22.4671C19.9579 21.9373 21.0511 21.0401 21.8203 19.8889C22.5895 18.7378 23 17.3844 23 15.9999C23 14.1434 22.2625 12.3629 20.9498 11.0502C19.637 9.73742 17.8565 8.99992 16 8.99992Z"
          fill="white"/>
</svg>
