<svg width="96" height="96" viewBox="0 0 96 96" fill="none" xmlns="http://www.w3.org/2000/svg">
    <g clip-path="url(#clip0)">
        <path d="M81.9361 14.0538C63.1881 -4.68855 32.7961 -4.68405 14.0538 14.0641C-4.68855 32.8122 -4.68405 63.2041 14.0641 81.9464C32.8122 100.689 63.2041 100.684 81.9464 81.9361C90.9475 72.9321 96.0029 60.7212 96.0001 47.9898C95.9974 35.2604 90.9385 23.0534 81.9361 14.0538ZM72.6944 66.8635C72.6923 66.8656 72.6903 66.8678 72.688 66.8699V66.8539L70.2559 69.2699C67.1106 72.4549 62.5298 73.7654 58.1759 72.7259C53.7893 71.5518 49.6193 69.6828 45.8239 67.1899C42.2978 64.9364 39.0301 62.302 36.0799 59.3339C33.3655 56.6393 30.9269 53.6806 28.7999 50.5019C26.4734 47.0815 24.6319 43.3555 23.3279 39.4298C21.8329 34.8181 23.0718 29.7576 26.5279 26.3579L29.3759 23.5099C30.1677 22.7146 31.4543 22.7118 32.2495 23.5036C32.2516 23.5056 32.2538 23.5077 32.2559 23.5099L41.2478 32.5019C42.0432 33.2937 42.046 34.5803 41.2542 35.3755C41.2521 35.3776 41.2501 35.3796 41.2478 35.3819L35.9678 40.6619C34.4528 42.1604 34.2623 44.5416 35.5199 46.2619C37.4296 48.8828 39.5429 51.349 41.8399 53.638C44.401 56.2101 47.1852 58.5499 50.1599 60.6301C51.8787 61.8289 54.2089 61.6268 55.6958 60.1501L60.7998 54.9661C61.5916 54.1707 62.8782 54.1679 63.6734 54.9597C63.6754 54.9618 63.6775 54.9638 63.6798 54.9661L72.6878 63.9901C73.4834 64.7817 73.4862 66.0681 72.6944 66.8635Z"
              fill="#0074FC"/>
    </g>
    <defs>
        <clipPath id="clip0">
            <rect width="96" height="96" fill="white"/>
        </clipPath>
    </defs>
</svg>
